<svg version="1.1" xmlns="http://www.w3.org/2000/svg" style="display: block;" viewBox="392.45 272.34 1306.624 481.2110091743119" width="638" height="235" preserveAspectRatio="none" xmlns:xlink="http://www.w3.org/1999/xlink">
<path transform="translate(0,0)" fill="rgb(255,255,255)" d="M 0 0 L 2048 0 L 2048 1116 L 0 1116 L 0 0 z"/>
<path transform="translate(0,0)" fill="rgb(51,113,176)" d="M 885.744 366.345 C 896.988 365.698 906.48 366.989 917.585 368.692 C 907.531 375.049 897.709 381.009 890.271 390.532 C 868.601 418.281 861.484 454.031 853.329 487.495 C 846.586 514.689 840.118 541.95 833.927 569.274 C 823.811 543.348 813.451 517.518 802.846 491.787 C 789.679 507.376 756.173 536.079 740.033 549.507 C 650.152 624.29 560.719 678.81 446.487 706.314 C 442.234 707.462 434.126 708.803 429.534 709.692 C 524.82 666.363 587.696 613.398 659.66 537.174 C 686.576 508.857 712.377 479.499 737.003 449.169 C 708.806 438.486 680.859 427.158 653.182 415.194 C 655.816 414.91 658.701 414.704 661.331 414.557 C 699.314 412.432 737.121 404.13 771.81 388.31 C 787.986 381.41 803.667 372.039 821.178 368.946 C 833.835 366.71 841.437 369.706 851.383 376.819 C 862.064 370.789 873.653 367.732 885.744 366.345 z"/>
<path transform="translate(0,0)" fill="rgb(255,255,255)" d="M 821.986 386.129 C 826.097 385.741 830.417 386.22 832.035 390.29 C 829.401 397.542 821.493 397.148 815.25 397.046 L 798.833 396.869 C 807.77 390.961 811.506 388.81 821.986 386.129 z"/>
<path transform="translate(0,0)" fill="rgb(51,113,176)" d="M 597.538 452.244 C 605.985 451.585 610.05 451.56 618.506 452.103 C 616.426 489.216 627.482 502.674 642.286 536.249 C 630.104 550.156 599.311 580.184 584.977 591.358 C 581.753 585.622 578.333 578.479 575.296 572.528 C 570.952 580.43 561.103 606.149 557.891 610.713 C 543.503 631.165 501.013 656.622 479.4 669.518 C 468.129 676.767 450.18 685.417 437.795 691.776 C 446.188 675.719 454.638 656.069 462.259 639.412 L 500.795 554.833 C 523.314 504.719 535.186 461.788 597.538 452.244 z"/>
<path transform="translate(0,0)" fill="rgb(51,113,176)" d="M 1078.41 472.555 C 1092.85 472.555 1107.29 472.474 1121.73 472.312 L 1121.47 633.26 L 1086.04 633.238 L 1086.08 572.5 C 1086.11 556.171 1086.05 539.841 1085.91 523.513 C 1069.99 552.641 1052 587.474 1034.72 615.171 C 1025.73 615.768 1019.43 615.762 1010.4 615.502 C 993.159 586.512 974.166 553.911 958.907 523.84 L 959.027 633.277 L 923.246 633.191 L 923.588 472.381 C 938.011 472.534 952.434 472.532 966.856 472.376 C 985.122 505.578 1003.46 539.983 1022.54 572.599 C 1040.31 542.84 1062.21 503.246 1078.41 472.555 z"/>
<path transform="translate(0,0)" fill="rgb(51,113,176)" d="M 1475.14 472.509 L 1488.82 472.501 C 1513.37 526.301 1538.45 579.861 1564.04 633.173 L 1524.56 633.207 C 1520.21 622.286 1513.96 609.577 1508.89 598.873 L 1464.25 598.817 L 1427.66 598.718 C 1422.71 610.311 1417.62 621.843 1412.39 633.312 L 1374.11 633.178 C 1398.54 579.697 1425.3 526.062 1449.14 472.563 L 1475.14 472.509 z"/>
<path transform="translate(0,0)" fill="rgb(255,255,255)" d="M 1468.06 507.543 C 1470.45 511.015 1476.6 525.571 1478.47 529.846 C 1484.44 543.602 1490.51 557.314 1496.69 570.978 L 1469.1 571.097 L 1439.67 571.153 C 1449.5 550.952 1458.55 528.268 1468.06 507.543 z"/>
<path transform="translate(0,0)" fill="rgb(51,113,176)" d="M 1217.96 472.574 C 1244.67 472.614 1302.02 469.313 1324.67 476.646 C 1338.49 481.122 1351.03 489.019 1357.71 502.345 C 1364.11 515.124 1365.04 531.437 1360.46 544.949 C 1354.91 561.329 1342.61 569.508 1327.8 576.664 C 1340.45 595.622 1353.27 614.474 1366.24 633.219 L 1325.16 633.32 C 1315.17 617.093 1301.82 598.334 1290.96 582.392 C 1286.04 582.497 1272.18 583.338 1268.49 581.613 L 1267.94 579.25 L 1267.91 552.924 C 1283.42 553.078 1307.05 555.628 1318.68 544.514 C 1323.36 540.053 1326.06 533.904 1326.18 527.439 C 1326.29 520.999 1323.79 514.787 1319.25 510.221 C 1307.39 498.307 1272.47 502.048 1254.98 502.188 L 1254.95 633.177 L 1217.87 633.199 L 1217.96 472.574 z"/>
<path transform="translate(0,0)" fill="rgb(51,113,176)" d="M 773.749 537.901 C 777.148 541.61 795.766 585.008 799.153 592.443 L 852.744 709.03 L 791.5 709.055 L 763.125 709.083 C 746.779 671.265 726.601 627.39 712.001 589.46 C 730.133 576.491 758.029 552.911 773.749 537.901 z"/>
<path transform="translate(0,0)" fill="rgb(51,113,176)" d="M 1605.34 472.513 L 1617.07 472.42 L 1617.11 633.255 L 1593.25 633.202 L 1580.78 633.087 L 1580.64 472.569 L 1605.34 472.513 z"/>
<path transform="translate(0,0)" fill="rgb(51,113,176)" d="M 1151.74 472.676 L 1188.09 472.509 L 1188.09 633.196 L 1151.73 633.237 L 1151.74 472.676 z"/>
<path transform="translate(0,0)" fill="rgb(51,113,176)" d="M 701.987 597.115 L 702.557 598.095 C 700.657 605.563 651.293 706.749 649.174 708.79 C 639.641 710.554 637.238 699.826 633.893 692.448 C 627.626 679.627 621.5 666.739 615.513 653.785 C 647.899 635.573 671.902 618.61 701.987 597.115 z"/>
</svg>